<?xml version="1.0" encoding="UTF-8"?>
<svg id="Ebene_1" xmlns="http://www.w3.org/2000/svg" xmlns:xlink="http://www.w3.org/1999/xlink" version="1.1" viewBox="0 0 1920 1080">
  <!-- Generator: Adobe Illustrator 29.8.11, SVG Export Plug-In . SVG Version: 2.1.1 Build 11)  -->
  <defs>
    <style>
      .st0 {
        fill: url(#Unbenannter_Verlauf_28714);
      }

      .st1 {
        fill: url(#Unbenannter_Verlauf_28712);
      }

      .st2 {
        fill: url(#Unbenannter_Verlauf_28713);
      }

      .st3 {
        fill: url(#Unbenannter_Verlauf_28711);
      }

      .st4 {
        fill: url(#Unbenannter_Verlauf_28717);
      }

      .st5 {
        fill: url(#Unbenannter_Verlauf_28716);
      }

      .st6 {
        fill: url(#Unbenannter_Verlauf_28715);
      }

      .st7 {
        fill: url(#Unbenannter_Verlauf_28710);
      }

      .st8 {
        fill: url(#Unbenannter_Verlauf_2872);
      }

      .st9 {
        fill: url(#Unbenannter_Verlauf_2871);
      }

      .st10 {
        fill: url(#Unbenannter_Verlauf_2874);
      }

      .st11 {
        fill: url(#Unbenannter_Verlauf_2873);
      }

      .st12 {
        fill: url(#Unbenannter_Verlauf_2877);
      }

      .st13 {
        fill: url(#Unbenannter_Verlauf_2878);
      }

      .st14 {
        fill: url(#Unbenannter_Verlauf_2875);
      }

      .st15 {
        fill: url(#Unbenannter_Verlauf_2876);
      }

      .st16 {
        fill: url(#Unbenannter_Verlauf_2879);
      }

      .st17 {
        fill: url(#Unbenannter_Verlauf_287);
      }

      .st18 {
        fill: url(#Unbenannter_Verlauf_25);
      }
    </style>
    <linearGradient id="Unbenannter_Verlauf_287" data-name="Unbenannter Verlauf 287" x1="778.6" y1="202.3" x2="1423.3" y2="1119.2" gradientUnits="userSpaceOnUse">
      <stop offset="0" stop-color="#edb5d4"/>
      <stop offset="1" stop-color="#bbddca"/>
    </linearGradient>
    <linearGradient id="Unbenannter_Verlauf_2871" data-name="Unbenannter Verlauf 287" x1="854.1" y1="149.2" x2="1498.7" y2="1066.1" xlink:href="#Unbenannter_Verlauf_287"/>
    <linearGradient id="Unbenannter_Verlauf_2872" data-name="Unbenannter Verlauf 287" x1="906.7" y1="112.3" x2="1551.3" y2="1029.1" xlink:href="#Unbenannter_Verlauf_287"/>
    <linearGradient id="Unbenannter_Verlauf_2873" data-name="Unbenannter Verlauf 287" x1="952.7" y1="79.9" x2="1597.4" y2="996.7" xlink:href="#Unbenannter_Verlauf_287"/>
    <linearGradient id="Unbenannter_Verlauf_2874" data-name="Unbenannter Verlauf 287" x1="545" y1="375" x2="1189.7" y2="1291.9" xlink:href="#Unbenannter_Verlauf_287"/>
    <linearGradient id="Unbenannter_Verlauf_2875" data-name="Unbenannter Verlauf 287" x1="692.4" y1="224.4" x2="1337.1" y2="1141.3" xlink:href="#Unbenannter_Verlauf_287"/>
    <linearGradient id="Unbenannter_Verlauf_2876" data-name="Unbenannter Verlauf 287" x1="862.4" y1="104.9" x2="1507.1" y2="1021.8" xlink:href="#Unbenannter_Verlauf_287"/>
    <linearGradient id="Unbenannter_Verlauf_2877" data-name="Unbenannter Verlauf 287" x1="1066.4" y1="-38.6" x2="1711.1" y2="878.3" xlink:href="#Unbenannter_Verlauf_287"/>
    <linearGradient id="Unbenannter_Verlauf_2878" data-name="Unbenannter Verlauf 287" x1="241" y1="588.8" x2="885.6" y2="1505.7" xlink:href="#Unbenannter_Verlauf_287"/>
    <linearGradient id="Unbenannter_Verlauf_2879" data-name="Unbenannter Verlauf 287" x1="357" y1="507.2" x2="1001.7" y2="1424.1" xlink:href="#Unbenannter_Verlauf_287"/>
    <linearGradient id="Unbenannter_Verlauf_28710" data-name="Unbenannter Verlauf 287" x1="486.4" y1="416.2" x2="1131.1" y2="1333.1" xlink:href="#Unbenannter_Verlauf_287"/>
    <linearGradient id="Unbenannter_Verlauf_28711" data-name="Unbenannter Verlauf 287" x1="536.1" y1="381.4" x2="1180.7" y2="1298.2" xlink:href="#Unbenannter_Verlauf_287"/>
    <linearGradient id="Unbenannter_Verlauf_28712" data-name="Unbenannter Verlauf 287" x1="708.2" y1="260.3" x2="1352.9" y2="1177.2" xlink:href="#Unbenannter_Verlauf_287"/>
    <linearGradient id="Unbenannter_Verlauf_28713" data-name="Unbenannter Verlauf 287" x1="817.6" y1="183.4" x2="1462.3" y2="1100.2" xlink:href="#Unbenannter_Verlauf_287"/>
    <linearGradient id="Unbenannter_Verlauf_28714" data-name="Unbenannter Verlauf 287" x1="945.8" y1="93.3" x2="1590.5" y2="1010.1" xlink:href="#Unbenannter_Verlauf_287"/>
    <linearGradient id="Unbenannter_Verlauf_28715" data-name="Unbenannter Verlauf 287" x1="1077.7" y1=".5" x2="1722.3" y2="917.4" xlink:href="#Unbenannter_Verlauf_287"/>
    <linearGradient id="Unbenannter_Verlauf_28716" data-name="Unbenannter Verlauf 287" x1="-897.1" y1="-6035.4" x2="-781.5" y2="-6035.4" gradientTransform="translate(6251.2 3770.3) rotate(-45)" xlink:href="#Unbenannter_Verlauf_287"/>
    <linearGradient id="Unbenannter_Verlauf_25" data-name="Unbenannter Verlauf 25" x1="21.4" y1="168" x2="529" y2="812.1" gradientUnits="userSpaceOnUse">
      <stop offset=".9" stop-color="#edb5d4"/>
      <stop offset="1" stop-color="#bbddca"/>
    </linearGradient>
    <linearGradient id="Unbenannter_Verlauf_28717" data-name="Unbenannter Verlauf 287" x1="-1180.9" y1="-5609.6" x2="-1093.6" y2="-5609.6" gradientTransform="translate(6251.2 3770.3) rotate(-45)" xlink:href="#Unbenannter_Verlauf_287"/>
  </defs>
  <g>
    <path class="st17" d="M680.7,156.8l1.6.4-2.9,13.1c1.1,1.8,2.7,3.8,4.2,5.3,1.8-2,3.1-4.2,3.1-7.3,0-17.3-4.7-38.5-18.2-85.1-4.4-15.3.2-21.9,5.8-25,13.7-8.2,26.1-13.1,37.4-23l2.2,2.4c-8.4,3.8-11.7,9.5-10.6,21.5,1.3,12.8,3.5,27.2,6,41.9,16.6-19.7,36.8-45.4,57.1-62.5l2.9,2c-4.9,6-8.4,12.2-10,18.2-2.4,9.5,14.6,80.4,33.4,87.7-16.6,32.6-29.9,70.2-72.9,70.9-23,.4-44.1-9.7-53.2-25.9l14-34.6ZM739.6,71.8c-7.3,7.1-21,24.8-29.5,35.4,3.8,20.4,8.4,41,13.5,58.5-12.2,6.9-21.3,10.4-34.3,14.8,10,6.9,23.7,10.4,37.7,10.4s38.3-6.4,48.7-19.5c-17.7-10.2-42.1-60.9-45-81.3l8.9-18.4Z"/>
    <path class="st9" d="M805.1,115.8l-3.8,4.9c-1.1,1.3-2.7,2-4.2,2s-3.3-1.1-2.4-3.3c.9-2,3.3-.9,5.3-2.2l18.4-23.7,33,11.5-.7,9.7,14.6-21.7c7.1,1.8,33.7,6,33.7,19.3l-24.8,40.3c-1.3,2-2.4,4.7-4.9,5.3-1.3.2-2.7,0-3.1-1.3-.9-3.8,4-1.8,6-6.4,3.5-8.4,5.8-17.1.7-25.7-2.9-5.1-8.6-7.3-14-7.3s-4.4.4-6.4,1.1l-2,2.9.4,65.1c4.4,2.7,9.3,4.9,14.8,6.9-5.1,8.2-10.9,15.9-15.9,24.1-14.8-6.2-23.5-10.6-37-22.6,2.4-4.7,4.2-10.6,4.9-19l-1.1-54.7-11.5-5.1Z"/>
    <path class="st8" d="M946.2,217.3c-22.1-.2-41-10.4-54.5-22.1,2.9-5.8,5.5-13.3,5.1-24.8l-1.8-41.9,25.3-10,8.6-25,30.1,6c14.8,2.9,23,10.9,23,23.5v64c-15.3,10.2-23,16.8-35.9,30.3ZM950.9,126l-21.9-5.5c-.2,21.3,2.4,49-2,63.3,5.5,5.3,17.3,13.3,26.8,13.7.2-31-2-47.2-2.9-71.5Z"/>
    <path class="st11" d="M1091.1,204.4l-23.3-.2-19.5,11.7c-4.7-2-9.1-3.8-13.7-5.8l-4.7,39.6-30.3,47.6-4.2-2.7,13.3-19.9-.9-76.6c-2-1.1-4-2.2-6.2-3.3,3.5-6.6,5.3-17.1,6-28.8-.2-17.3-.2-29-1.3-44.5l-10.9-4.9-3.8,4.9c-1.1,1.3-2.7,2-4.2,2s-3.3-1.1-2.4-3.3c.9-2,3.3-.9,5.3-2.2l18.4-23.7,32.6,11.3,6.9-12.2c12,5.3,33.7,19.7,42.7,28.6l.2,82.4ZM1058.1,192c1.3-21.9,1.6-32.3-.2-54.3l-17.5-11.3c-.9,21.7,1.6,34.8-2.7,57.4,6.9,4,12.6,6.2,20.4,8.2Z"/>
    <path class="st10" d="M413.4,437.8l4.1,1.2-7.7,34.8c3,4.7,7.1,10,11.2,14.2,4.7-5.3,8.3-11.2,8.3-19.5,0-46.1-12.4-102.8-48.4-226.8-11.8-40.7.6-58.5,15.4-66.7,36.6-21.9,69.7-34.8,99.8-61.4l5.9,6.5c-22.4,10-31.3,25.4-28.3,57.3,3.5,34.3,9.4,72.6,15.9,111.6,44.3-52.6,98-121.1,152.4-166.5l7.7,5.3c-13,15.9-22.4,32.5-26.6,48.4-6.5,25.4,39,214.4,89.2,233.9-44.3,86.8-79.7,187.2-194.3,189-61.4,1.2-117.5-26-141.7-69.1l37.2-92.1ZM570.5,211c-19.5,18.9-56.1,66.1-78.5,94.5,10,54.3,22.4,109.3,36,155.9-32.5,18.3-56.7,27.8-91.5,39.6,26.6,18.3,63.2,27.8,100.4,27.8s102.2-17.1,129.9-52c-47.2-27.2-112.2-162.4-119.9-216.7l23.6-49Z"/>
    <path class="st14" d="M876.9,599c-59.1-.6-116.3-28.3-152.4-60.2,7.7-15.4,14.8-36,13.6-67.3l-.6-20.7c-26,2.4-49,4.7-49,4.7v-24.2h47.8l-3-73.8,67.3-27.2,23-67.9,135.8,73.2-115.7,95.7h98.6l1.2,28.9c-40.7-4.7-87.4-14.2-117.5-17.1-.6,23.6-3,49.6-7.7,65,14.8,14.8,77.4,26,102.2,27.2l10-9.4c3.5-5.9-.6-11.8,4.7-14.8,9.4-5.3,14.2,10,5.9,17.7l-64.4,70.3ZM827.8,431.3l65.6-55.5-69.7-32.5c0,23,1.8,56.1,1.8,88h2.4Z"/>
    <path class="st15" d="M1156.8,293.1c34.3,7.7,61.4,26,61.4,63.8v158.9c7.7,7.7,19.5,13,32.5,15.9l6.5-10.6c0-7.1-4.1-17.1,5.3-17.1s7.1,5.9,7.1,9.4c0,9.4-46.1,73.8-53.7,85.6-38.4-15.9-62.6-28.9-94.5-56.7l-47.8,56.7c-40.7-17.1-65-30.7-98.6-60.2,15.4-30.7,13.6-63.8,13.6-97.4l88-33.1v102.2c6.5,9.4,20.7,17.7,32.5,21.9,17.1-15.9,18.3-36.6,18.3-60.8,0-58.5-54.3-73.2-100.4-73.2s-25.4,1.2-37.8,2.4l-4.7-5.9,67.9-125.8,104.5,24.2ZM1008.6,374.6c50.2,3.5,93.9,19.5,121.7,65.6v-74.4l-103.3-26.6-18.3,34.3v1.2Z"/>
    <path class="st12" d="M1509.4,483.3c-54.3,43.1-85.6,69.1-140,115.7-40.7-17.1-65-30.7-98.6-60.2,23.6-43.7,16.5-155.9,11.2-210.2l82.7-7.1c10,59.6,14.8,118.7,4.1,178.3,26.6-28.9,46.7-58.5,53.7-84.4-.6-8.9-1.2-59.1-1.8-69.7-50.8-37.2-137.6-50.8-196.7-137.6l26-90.9c1.8-5.3-8.3-11.2,0-17.7,2.4-1.8,5.9,0,8.3,3,5.3,8.3.6,14.8-1.8,23,39.6,89.2,197.8,125.8,252.2,178.3l.6,179.5ZM1421.4,531.1c2.4-37.8,3-62.6,2.4-91.5-12.4,26.6-34.3,49.6-55.5,70.3,17.7,10,33.1,15.9,53.2,21.3Z"/>
    <g>
      <path class="st13" d="M433.7,693.3c-7.6,4.2-15.1,4.9-23.4,4.9-38.1,0-105.7-50.2-105.7-50.2-3.8-1.5-7.6-2.3-11.7-2.3-6.8,0-14,1.9-21.1,5.3-34.7,167.3,35.5,208.4,99.3,208.4s66.8-26.1,66.8-71.7h-137.1l22.7-42.7,152.2-.8-11.3,43.4h-21.1c2.3,48,23,95.5,44.2,122.7h-49.5v-84.2c-14.7,51.4-57.8,84.2-97,84.2s-159.7-50.2-131.8-233.7c0,0,92.5-69.5,116.7-69.5,37,0,67.2,41.9,113.7,41.9s5.7,0,8.3-1.5l3.8-9.1c1.1-4.5-1.9-7.2,0-9.1,1.1-1.1,2.3-1.5,3-1.5,3.4,0,6,5.3,3.4,9.8l-24.2,55.5Z"/>
      <path class="st16" d="M582.1,910.4c-37.8-.4-69.9-17.7-92.9-37.8,4.9-9.8,9.4-22.7,8.7-42.3l-3-71.4,43-17,14.7-42.7,51.4,10.2c25.3,4.9,39.3,18.5,39.3,40v109.1c-26.1,17.4-39.3,28.7-61.2,51.7ZM590,754.8l-37.4-9.4c-.4,36.2,4.2,83.4-3.4,108,9.4,9.1,29.5,22.7,45.7,23.4.4-52.9-3.4-80.4-4.9-122Z"/>
      <path class="st7" d="M668.9,737.4l-6.4,8.3c-1.9,2.3-4.5,3.4-7.2,3.4s-5.7-1.9-4.2-5.7c1.5-3.4,5.7-1.5,9.1-3.8l31.3-40.4,56.3,19.6-1.1,16.6,24.9-37c12.1,3,57.4,10.2,57.4,32.8l-42.3,68.7c-2.3,3.4-4.2,7.9-8.3,9.1-2.3.4-4.5,0-5.3-2.3-1.5-6.4,6.8-3,10.2-10.9,6-14.3,9.8-29.1,1.1-43.8-4.9-8.7-14.7-12.5-23.8-12.5s-7.6.8-10.9,1.9l-3.4,4.9.8,111c7.6,4.5,15.9,8.3,25.3,11.7-8.7,14-18.5,27.2-27.2,41.2-25.3-10.6-40-18.1-63.1-38.5,4.2-7.9,7.2-18.1,8.3-32.5l-1.9-93.3-19.6-8.7Z"/>
      <path class="st3" d="M914.7,914.9c0-8.3-3-14.3-9.1-19.6l-20.8,15.1c-25.3-10.6-42.3-20-63.1-38.5,15.1-28.3,10.6-101.2,7.2-134.4l46.1,7.6,26.1-46.1c20.8,9.4,56.6,32.8,72.9,48.7l.4,126.9c11.3,7.6,21.1,13.6,34,18.1-6.8,10.2-44.6,62.3-44.6,70.6s4.9,17.4,9.1,24.5c-40.4,9.8-106.9,13.6-135.5,39.6-7.2,6.4-10.2,12.5-10.2,17.4l-5.3-.4,3-54.4c.8-15.5,10.6-28.7,23.8-31.3,26.8-5.7,66.1-12.8,66.1-43.8ZM918.1,866.9c1.5-31.3,1.9-61.2-.4-92.5l-32.5-21.1c3.4,38.1,5.3,61.5-1.9,99.7,11,6.4,22.7,10.9,34.7,14ZM970.2,928.9c-15.9-7.2-30.2-17-44.2-27.2-1.5,20-10.2,35.9-26.4,47.6,21.5-4.2,43.8-6.8,64.9-12.8l5.7-7.6Z"/>
      <path class="st1" d="M1114.8,910.4c-37.8-.4-74.4-18.1-97.4-38.5,4.9-9.8,9.4-23,8.7-43l-.4-13.2c-16.6,1.5-31.3,3-31.3,3v-15.5h30.6l-1.9-47.2,43-17.4,14.7-43.4,86.8,46.8-74,61.2h63.1l.8,18.5c-26.1-3-55.9-9.1-75.1-10.9-.4,15.1-1.9,31.7-4.9,41.5,9.4,9.4,49.5,16.6,65.3,17.4l6.4-6c2.3-3.8-.4-7.6,3-9.4,6-3.4,9.1,6.4,3.8,11.3l-41.2,44.9ZM1083.5,803.1l41.9-35.5-44.6-20.8c0,14.7,1.1,35.9,1.1,56.3h1.5Z"/>
      <path class="st2" d="M1270.4,910.4c-37.8-.4-69.9-17.7-92.9-37.8,4.9-9.8,9.4-22.7,8.7-42.3l-3-71.4,43-17,14.7-42.7,51.4,10.2c25.3,4.9,39.3,18.5,39.3,40v109.1c-26.1,17.4-39.3,28.7-61.2,51.7ZM1278.3,754.8l-37.4-9.4c-.4,36.2,4.2,83.4-3.4,108,9.4,9.1,29.5,22.7,45.7,23.4.4-52.9-3.4-80.4-4.9-122Z"/>
      <path class="st0" d="M1373.9,746.1l-19.6-8.7-6.4,8.3c-1.9,2.3-4.5,3.4-7.2,3.4s-5.7-1.9-4.2-5.7c1.5-3.4,5.7-1.5,9.1-3.8l31.3-40.4,56.3,19.6-2.6,139.3c7.9,5.3,15.5,9.8,23,13.2l14.7-18.9c4.5-25.7,1.9-97,1.9-99.7l-23.8-11.7,27.2-41.5,13.6,6.8c23,11.3,39.3,18.9,39.3,40.8v111c6,3.8,12.8,6.8,20.4,9.8l4.2-6.8c.8-4.2-2.3-7.6.4-9.8,1.1-.8,2.3-1.1,3-1.1,3.8,0,6,6,3,10.9l-32.8,49.8c-25.3-10.6-40-18.1-62.7-38.1l-33.2,38.1c-25.3-10.6-40-18.1-63.1-38.5,4.9-9.8,8.7-23,8.7-43l-.4-83.4Z"/>
      <path class="st6" d="M1568.7,880.5h-5.3l27.2-41.2c12.5,1.5,24.9,2.6,37.4,2.6s28.3-1.9,38.1-12.5c0-16.2-.8-32.8-.8-49.1-18.9,4.9-37,40.8-45.3,53.2-25.3-10.6-29.8-14.7-50.2-32.8,6.8-13.2,8.7-28.3,8.7-43s-.4-8.3-.8-12.5c-3-1.1-5.7-2.3-8.7-3-2.6,4.2-6,10.2-12.1,10.2s-4.5-1.1-4.5-3.8c0-5.3,6-4.2,9.4-6l28.7-43.4c15.9,6.4,33.2,11.3,47.6,20.4v9.4c5.3-9.8,10.2-20,15.1-30.2l29.8,7.2c18.1,4.5,37,4.9,37.8,28.7l.8,27.9c-17.7,3-34.4,7.6-50.6,15.1l50.6,8.3v39.3c0,49.8-25.7,83.4-63.4,112.5-5.3,4.2-19.6,17.7-26.1,17.7s-5.3-1.1-5.3-3.8,1.9-4.2,4.2-4.2c9.1,0,15.1-7.6,21.9-13.2,14.3-11.3,11.7-51.7,12.5-67.2.4-10.6.8-21.1.8-31.7-9.8,9.1-23.4,12.5-36.6,12.5s-13.2-.8-19.6-1.9c17.7,5.3,31.7,9.4,46.4,21.5-6.8,13.2-8.7,28.3-8.7,43-25.3-18.1-46.8-30.2-78.9-30.2ZM1642.3,791.4c7.9-7.2,13.2-12.8,23-18.1l-.8-26.4-26.8-3c-.8,17.4-2.6,25.3-9.1,41.2,4.2,2.6,9.1,4.5,13.6,6.4Z"/>
    </g>
  </g>
  <polygon class="st5" points="1447.9 93.1 1423.4 107.9 1433.1 134.9 1405.3 128.1 1393.2 154 1378.3 129.6 1351.4 139.3 1358.1 111.5 1332.2 99.3 1356.7 84.4 1347 57.5 1374.8 64.2 1386.9 38.3 1401.8 62.8 1428.7 53.1 1422 80.9 1447.9 93.1"/>
  <polygon class="st18" points="346 503.4 321.5 518.2 331.2 545.2 303.4 538.4 291.2 564.3 276.3 539.9 249.4 549.6 256.2 521.8 230.3 509.6 254.7 494.7 245 467.8 272.8 474.5 285 448.6 299.9 473.1 326.8 463.4 320 491.2 346 503.4"/>
  <polygon class="st4" points="1524 605.6 1505.6 616.8 1512.9 637.1 1491.9 632 1482.8 651.6 1471.5 633.1 1451.2 640.4 1456.3 619.5 1436.8 610.3 1455.2 599.1 1447.9 578.7 1468.9 583.9 1478.1 564.3 1489.3 582.8 1509.6 575.4 1504.5 596.4 1524 605.6"/>
</svg>